G75*
%MOIN*%
%OFA0B0*%
%FSLAX24Y24*%
%IPPOS*%
%LPD*%
%AMOC8*
5,1,8,0,0,1.08239X$1,22.5*
%
%ADD10C,0.0620*%
%ADD11C,0.0740*%
%ADD12R,0.0620X0.0620*%
%ADD13R,0.0594X0.0594*%
%ADD14C,0.0594*%
%ADD15C,0.1260*%
%ADD16R,0.1260X0.1260*%
%ADD17C,0.0100*%
%ADD18C,0.0554*%
%ADD19C,0.0160*%
D10*
X016875Y000930D03*
X017875Y000930D03*
X018875Y000930D03*
X019875Y000930D03*
X020875Y000930D03*
X021875Y000930D03*
X022875Y000930D03*
X023875Y000930D03*
X024875Y000930D03*
X025875Y000930D03*
X026875Y000930D03*
X027875Y000930D03*
X028875Y000930D03*
X029875Y000930D03*
X031125Y002930D03*
X037125Y002930D03*
X037125Y003930D03*
X040125Y004330D03*
X040125Y003330D03*
X040125Y002330D03*
X040125Y001330D03*
X037125Y004930D03*
X037125Y005930D03*
X037125Y006930D03*
X040125Y007330D03*
X040125Y006330D03*
X040125Y005330D03*
X031125Y006930D03*
X029875Y006930D03*
X028875Y006930D03*
X027875Y006930D03*
X026875Y006930D03*
X025875Y006930D03*
X024875Y006930D03*
X023875Y006930D03*
X022875Y006930D03*
X021875Y006930D03*
X020875Y006930D03*
X019875Y006930D03*
X018875Y006930D03*
X017875Y006930D03*
X016875Y006930D03*
X032125Y009680D03*
X033125Y009680D03*
X035125Y009680D03*
X036125Y009680D03*
X040125Y009330D03*
X040125Y008330D03*
D11*
X038375Y008430D03*
X038375Y009430D03*
X030905Y009420D03*
X030925Y008480D03*
X026925Y008480D03*
X025895Y008380D03*
X025875Y009430D03*
X026905Y009420D03*
X021875Y009430D03*
X020805Y009130D03*
X021895Y008380D03*
X038375Y003680D03*
X038375Y002680D03*
D12*
X034125Y009680D03*
D13*
X014125Y006680D03*
X014125Y005680D03*
D14*
X014125Y004680D03*
X014125Y003680D03*
D15*
X015125Y004180D03*
X019225Y008660D03*
D16*
X017225Y008660D03*
X015125Y006180D03*
D17*
X016828Y005188D02*
X018125Y002930D01*
X031125Y002930D01*
X032125Y002930D01*
X035125Y008680D01*
X035125Y009680D01*
X034125Y009680D02*
X034125Y010180D01*
X023125Y010180D01*
X023125Y009930D01*
X017375Y009930D01*
X017225Y008660D01*
X018743Y007625D02*
X027125Y007664D01*
X026925Y008480D01*
X026905Y009420D01*
X025895Y008380D02*
X023375Y009930D01*
X023125Y009930D01*
X030925Y008480D02*
X031625Y008180D01*
X032125Y005680D01*
X025125Y005680D01*
X024875Y006930D01*
X023875Y006930D02*
X024125Y005180D01*
X032625Y005180D01*
X032125Y009680D01*
X034125Y010180D02*
X040125Y010180D01*
X040125Y009330D01*
X038375Y009430D02*
X038375Y008430D01*
X036125Y008430D01*
X036125Y004180D01*
X037125Y004930D02*
X040125Y006330D01*
X040125Y005330D02*
X039375Y005180D01*
X039375Y003680D01*
X038625Y000930D01*
X029875Y000930D01*
X028875Y000930D02*
X029125Y001680D01*
X033125Y001680D01*
X034625Y005680D01*
X027875Y006930D02*
X026875Y006930D01*
X027875Y002430D02*
X027875Y000930D01*
X023125Y001930D02*
X017125Y001930D01*
X022875Y000930D02*
X022875Y000430D01*
X038625Y000430D01*
X040125Y001330D01*
D18*
X036125Y004180D03*
X034625Y005680D03*
X035125Y008680D03*
X027875Y002430D03*
X023125Y001930D03*
X017125Y001930D03*
D19*
X013816Y003315D02*
X013824Y000380D01*
X022625Y000380D01*
X022625Y000380D01*
X022625Y000482D01*
X022586Y000498D01*
X022443Y000641D01*
X022375Y000804D01*
X022307Y000641D01*
X022164Y000498D01*
X021976Y000420D01*
X021774Y000420D01*
X021586Y000498D01*
X021443Y000641D01*
X021375Y000804D01*
X021307Y000641D01*
X021164Y000498D01*
X020976Y000420D01*
X020774Y000420D01*
X020586Y000498D01*
X020443Y000641D01*
X020375Y000804D01*
X020307Y000641D01*
X020164Y000498D01*
X019976Y000420D01*
X019774Y000420D01*
X019586Y000498D01*
X019443Y000641D01*
X019375Y000804D01*
X019307Y000641D01*
X019164Y000498D01*
X018976Y000420D01*
X018774Y000420D01*
X018586Y000498D01*
X018443Y000641D01*
X018375Y000804D01*
X018307Y000641D01*
X018164Y000498D01*
X017976Y000420D01*
X017774Y000420D01*
X017586Y000498D01*
X017443Y000641D01*
X017375Y000804D01*
X017307Y000641D01*
X017164Y000498D01*
X016976Y000420D01*
X016774Y000420D01*
X016586Y000498D01*
X016443Y000641D01*
X016365Y000829D01*
X016365Y001031D01*
X016443Y001219D01*
X016586Y001362D01*
X016774Y001440D01*
X016976Y001440D01*
X017164Y001362D01*
X017307Y001219D01*
X017375Y001056D01*
X017443Y001219D01*
X017586Y001362D01*
X017774Y001440D01*
X017976Y001440D01*
X018164Y001362D01*
X018307Y001219D01*
X018375Y001056D01*
X018443Y001219D01*
X018586Y001362D01*
X018774Y001440D01*
X018976Y001440D01*
X019164Y001362D01*
X019307Y001219D01*
X019375Y001056D01*
X019443Y001219D01*
X019586Y001362D01*
X019774Y001440D01*
X019976Y001440D01*
X020164Y001362D01*
X020307Y001219D01*
X020375Y001056D01*
X020443Y001219D01*
X020586Y001362D01*
X020774Y001440D01*
X020976Y001440D01*
X021164Y001362D01*
X021307Y001219D01*
X021375Y001056D01*
X021443Y001219D01*
X021586Y001362D01*
X021774Y001440D01*
X021976Y001440D01*
X022164Y001362D01*
X022307Y001219D01*
X022375Y001056D01*
X022443Y001219D01*
X022586Y001362D01*
X022774Y001440D01*
X022976Y001440D01*
X023164Y001362D01*
X023307Y001219D01*
X023375Y001056D01*
X023443Y001219D01*
X023586Y001362D01*
X023774Y001440D01*
X023976Y001440D01*
X024164Y001362D01*
X024307Y001219D01*
X024375Y001056D01*
X024443Y001219D01*
X024586Y001362D01*
X024774Y001440D01*
X024976Y001440D01*
X025164Y001362D01*
X025307Y001219D01*
X025375Y001056D01*
X025443Y001219D01*
X025586Y001362D01*
X025774Y001440D01*
X025976Y001440D01*
X026164Y001362D01*
X026307Y001219D01*
X026375Y001056D01*
X026443Y001219D01*
X026586Y001362D01*
X026774Y001440D01*
X026976Y001440D01*
X027164Y001362D01*
X027307Y001219D01*
X027375Y001056D01*
X027443Y001219D01*
X027586Y001362D01*
X027625Y001378D01*
X027625Y002017D01*
X027605Y002025D01*
X027470Y002160D01*
X027398Y002335D01*
X027398Y002525D01*
X027470Y002700D01*
X027605Y002835D01*
X027780Y002907D01*
X027970Y002907D01*
X028145Y002835D01*
X028280Y002700D01*
X028352Y002525D01*
X028352Y002335D01*
X028280Y002160D01*
X028145Y002025D01*
X028125Y002017D01*
X028125Y001378D01*
X028164Y001362D01*
X028307Y001219D01*
X028375Y001056D01*
X028443Y001219D01*
X028586Y001362D01*
X028774Y001440D01*
X028781Y001440D01*
X028875Y001721D01*
X028875Y001730D01*
X028891Y001767D01*
X028904Y001806D01*
X028910Y001813D01*
X028913Y001822D01*
X028942Y001851D01*
X028969Y001881D01*
X028977Y001885D01*
X028983Y001892D01*
X029021Y001908D01*
X029058Y001926D01*
X029067Y001926D01*
X029075Y001930D01*
X029116Y001930D01*
X029157Y001933D01*
X029166Y001930D01*
X032952Y001930D01*
X034247Y005383D01*
X034220Y005410D01*
X034148Y005585D01*
X034148Y005775D01*
X034220Y005950D01*
X034355Y006085D01*
X034530Y006157D01*
X034720Y006157D01*
X034895Y006085D01*
X035030Y005950D01*
X035102Y005775D01*
X035102Y005585D01*
X035030Y005410D01*
X034895Y005275D01*
X034720Y005203D01*
X034713Y005203D01*
X033375Y001635D01*
X033375Y001630D01*
X033358Y001588D01*
X033342Y001546D01*
X033339Y001542D01*
X033337Y001538D01*
X033305Y001506D01*
X033274Y001473D01*
X033270Y001471D01*
X033267Y001468D01*
X033225Y001451D01*
X033183Y001432D01*
X033179Y001432D01*
X033175Y001430D01*
X033129Y001430D01*
X033084Y001428D01*
X033080Y001430D01*
X030001Y001430D01*
X030164Y001362D01*
X030307Y001219D01*
X030323Y001180D01*
X038434Y001180D01*
X038716Y002215D01*
X038698Y002197D01*
X038488Y002110D01*
X038262Y002110D01*
X038052Y002197D01*
X037892Y002357D01*
X037805Y002567D01*
X037805Y002793D01*
X037892Y003003D01*
X038052Y003163D01*
X038093Y003180D01*
X038052Y003197D01*
X037892Y003357D01*
X037805Y003567D01*
X037805Y003793D01*
X037892Y004003D01*
X038052Y004163D01*
X038262Y004250D01*
X038488Y004250D01*
X038698Y004163D01*
X038858Y004003D01*
X038945Y003793D01*
X038945Y003567D01*
X038858Y003357D01*
X038698Y003197D01*
X038657Y003180D01*
X038698Y003163D01*
X038858Y003003D01*
X038902Y002897D01*
X039125Y003713D01*
X039125Y005155D01*
X039120Y005180D01*
X039125Y005204D01*
X039125Y005587D01*
X037635Y004892D01*
X037635Y004829D01*
X037557Y004641D01*
X037414Y004498D01*
X037251Y004430D01*
X037414Y004362D01*
X037557Y004219D01*
X037635Y004031D01*
X037635Y003829D01*
X037557Y003641D01*
X037414Y003498D01*
X037251Y003430D01*
X037414Y003362D01*
X037557Y003219D01*
X037635Y003031D01*
X037635Y002829D01*
X037557Y002641D01*
X037414Y002498D01*
X037226Y002420D01*
X037024Y002420D01*
X036836Y002498D01*
X036693Y002641D01*
X036615Y002829D01*
X036615Y003031D01*
X036693Y003219D01*
X036836Y003362D01*
X036999Y003430D01*
X036836Y003498D01*
X036693Y003641D01*
X036615Y003829D01*
X036615Y004031D01*
X036693Y004219D01*
X036836Y004362D01*
X036999Y004430D01*
X036836Y004498D01*
X036693Y004641D01*
X036615Y004829D01*
X036615Y005031D01*
X036693Y005219D01*
X036836Y005362D01*
X036999Y005430D01*
X036836Y005498D01*
X036693Y005641D01*
X036615Y005829D01*
X036615Y006031D01*
X036693Y006219D01*
X036836Y006362D01*
X036999Y006430D01*
X036836Y006498D01*
X036693Y006641D01*
X036615Y006829D01*
X036615Y007031D01*
X036693Y007219D01*
X036836Y007362D01*
X037024Y007440D01*
X037226Y007440D01*
X037414Y007362D01*
X037557Y007219D01*
X037635Y007031D01*
X037635Y006829D01*
X037557Y006641D01*
X037414Y006498D01*
X037251Y006430D01*
X037414Y006362D01*
X037557Y006219D01*
X037635Y006031D01*
X037635Y005829D01*
X037557Y005641D01*
X037414Y005498D01*
X037251Y005430D01*
X037414Y005362D01*
X037429Y005348D01*
X039125Y006139D01*
X039125Y006680D01*
X039754Y006680D01*
X039836Y006762D01*
X040024Y006840D01*
X040125Y006840D01*
X040125Y007315D01*
X040110Y007315D01*
X040110Y006840D01*
X040086Y006840D01*
X040010Y006852D01*
X039937Y006876D01*
X039868Y006911D01*
X039806Y006956D01*
X039751Y007011D01*
X039706Y007073D01*
X039671Y007142D01*
X039647Y007215D01*
X039635Y007291D01*
X039635Y007315D01*
X040110Y007315D01*
X040110Y007345D01*
X039635Y007345D01*
X039635Y007369D01*
X039647Y007445D01*
X039671Y007518D01*
X039706Y007587D01*
X039751Y007649D01*
X039782Y007680D01*
X039105Y007680D01*
X039105Y009930D01*
X038657Y009930D01*
X038698Y009913D01*
X038858Y009753D01*
X038945Y009543D01*
X038945Y009317D01*
X038858Y009107D01*
X038698Y008947D01*
X038657Y008930D01*
X038698Y008913D01*
X038858Y008753D01*
X038945Y008543D01*
X038945Y008317D01*
X038858Y008107D01*
X038698Y007947D01*
X038488Y007860D01*
X038262Y007860D01*
X038052Y007947D01*
X037892Y008107D01*
X037862Y008180D01*
X036375Y008180D01*
X036375Y004593D01*
X036395Y004585D01*
X036530Y004450D01*
X036602Y004275D01*
X036602Y004085D01*
X036530Y003910D01*
X036395Y003775D01*
X036220Y003703D01*
X036030Y003703D01*
X035855Y003775D01*
X035720Y003910D01*
X035648Y004085D01*
X035648Y004275D01*
X035720Y004450D01*
X035855Y004585D01*
X035875Y004593D01*
X035875Y008480D01*
X035913Y008572D01*
X035983Y008642D01*
X036075Y008680D01*
X037862Y008680D01*
X037892Y008753D01*
X038052Y008913D01*
X038093Y008930D01*
X038052Y008947D01*
X037892Y009107D01*
X037805Y009317D01*
X037805Y009543D01*
X037892Y009753D01*
X038052Y009913D01*
X038093Y009930D01*
X036573Y009930D01*
X036635Y009781D01*
X036635Y009579D01*
X036557Y009391D01*
X036414Y009248D01*
X036226Y009170D01*
X036024Y009170D01*
X035836Y009248D01*
X035693Y009391D01*
X035615Y009579D01*
X035615Y009781D01*
X035677Y009930D01*
X035548Y009930D01*
X035579Y009868D01*
X035603Y009795D01*
X035615Y009719D01*
X035615Y009695D01*
X035140Y009695D01*
X035140Y009665D01*
X035615Y009665D01*
X035615Y009641D01*
X035603Y009565D01*
X035579Y009492D01*
X035544Y009423D01*
X035499Y009361D01*
X035444Y009306D01*
X035382Y009261D01*
X035313Y009226D01*
X035240Y009202D01*
X035164Y009190D01*
X035140Y009190D01*
X035140Y009665D01*
X035110Y009665D01*
X035110Y009190D01*
X035086Y009190D01*
X035010Y009202D01*
X034937Y009226D01*
X034868Y009261D01*
X034806Y009306D01*
X034751Y009361D01*
X034706Y009423D01*
X034671Y009492D01*
X034647Y009565D01*
X034635Y009641D01*
X034635Y009665D01*
X035110Y009665D01*
X035110Y009695D01*
X034635Y009695D01*
X034635Y009719D01*
X034647Y009795D01*
X034671Y009868D01*
X034702Y009930D01*
X034635Y009930D01*
X034635Y009287D01*
X034518Y009170D01*
X033732Y009170D01*
X033615Y009287D01*
X033615Y009530D01*
X033557Y009391D01*
X033414Y009248D01*
X033226Y009170D01*
X033024Y009170D01*
X032836Y009248D01*
X032693Y009391D01*
X032625Y009554D01*
X032557Y009391D01*
X032424Y009257D01*
X032870Y005243D01*
X032875Y005230D01*
X032875Y005194D01*
X032879Y005158D01*
X032875Y005145D01*
X032875Y005130D01*
X032861Y005097D01*
X032851Y005063D01*
X032842Y005052D01*
X032837Y005038D01*
X032812Y005013D01*
X032789Y004985D01*
X032777Y004978D01*
X032767Y004968D01*
X032733Y004954D01*
X032702Y004937D01*
X032688Y004935D01*
X032675Y004930D01*
X032639Y004930D01*
X032603Y004926D01*
X032590Y004930D01*
X024143Y004930D01*
X024111Y004925D01*
X024093Y004930D01*
X024075Y004930D01*
X024046Y004942D01*
X024015Y004950D01*
X024000Y004961D01*
X023983Y004968D01*
X023961Y004991D01*
X023935Y005010D01*
X023926Y005026D01*
X023913Y005038D01*
X023901Y005068D01*
X023885Y005095D01*
X023882Y005113D01*
X023875Y005130D01*
X023875Y005162D01*
X023690Y006454D01*
X023586Y006498D01*
X023443Y006641D01*
X023375Y006804D01*
X023307Y006641D01*
X023164Y006498D01*
X022976Y006420D01*
X022774Y006420D01*
X022586Y006498D01*
X022443Y006641D01*
X022375Y006804D01*
X022307Y006641D01*
X022164Y006498D01*
X021976Y006420D01*
X021774Y006420D01*
X021586Y006498D01*
X021443Y006641D01*
X021375Y006804D01*
X021307Y006641D01*
X021164Y006498D01*
X020976Y006420D01*
X020774Y006420D01*
X020586Y006498D01*
X020443Y006641D01*
X020375Y006804D01*
X020307Y006641D01*
X020164Y006498D01*
X019976Y006420D01*
X019774Y006420D01*
X019586Y006498D01*
X019443Y006641D01*
X019375Y006804D01*
X019307Y006641D01*
X019164Y006498D01*
X018976Y006420D01*
X018774Y006420D01*
X018586Y006498D01*
X018443Y006641D01*
X018375Y006804D01*
X018307Y006641D01*
X018164Y006498D01*
X017976Y006420D01*
X017774Y006420D01*
X017586Y006498D01*
X017443Y006641D01*
X017365Y006829D01*
X017365Y007031D01*
X017443Y007219D01*
X017586Y007362D01*
X017774Y007440D01*
X017976Y007440D01*
X018164Y007362D01*
X018307Y007219D01*
X018375Y007056D01*
X018443Y007219D01*
X018586Y007362D01*
X018774Y007440D01*
X018976Y007440D01*
X019164Y007362D01*
X019307Y007219D01*
X019375Y007056D01*
X019443Y007219D01*
X019586Y007362D01*
X019774Y007440D01*
X019976Y007440D01*
X020164Y007362D01*
X020307Y007219D01*
X020375Y007056D01*
X020443Y007219D01*
X020586Y007362D01*
X020774Y007440D01*
X020976Y007440D01*
X021164Y007362D01*
X021307Y007219D01*
X021375Y007056D01*
X021443Y007219D01*
X021586Y007362D01*
X021774Y007440D01*
X021976Y007440D01*
X022164Y007362D01*
X022307Y007219D01*
X022375Y007056D01*
X022443Y007219D01*
X022586Y007362D01*
X022774Y007440D01*
X022976Y007440D01*
X023164Y007362D01*
X023307Y007219D01*
X023375Y007056D01*
X023443Y007219D01*
X023586Y007362D01*
X023774Y007440D01*
X023976Y007440D01*
X024164Y007362D01*
X024307Y007219D01*
X024375Y007056D01*
X024443Y007219D01*
X024586Y007362D01*
X024774Y007440D01*
X024976Y007440D01*
X025164Y007362D01*
X025307Y007219D01*
X025375Y007056D01*
X025443Y007219D01*
X025586Y007362D01*
X025774Y007440D01*
X025976Y007440D01*
X026164Y007362D01*
X026307Y007219D01*
X026375Y007056D01*
X026443Y007219D01*
X026586Y007362D01*
X026774Y007440D01*
X026976Y007440D01*
X027164Y007362D01*
X027307Y007219D01*
X027323Y007180D01*
X027427Y007180D01*
X027443Y007219D01*
X027586Y007362D01*
X027774Y007440D01*
X027976Y007440D01*
X028164Y007362D01*
X028307Y007219D01*
X028375Y007056D01*
X028443Y007219D01*
X028586Y007362D01*
X028774Y007440D01*
X028976Y007440D01*
X029164Y007362D01*
X029307Y007219D01*
X029375Y007056D01*
X029443Y007219D01*
X029586Y007362D01*
X029774Y007440D01*
X029976Y007440D01*
X030164Y007362D01*
X030307Y007219D01*
X030385Y007031D01*
X030385Y006829D01*
X030307Y006641D01*
X030164Y006498D01*
X029976Y006420D01*
X029774Y006420D01*
X029586Y006498D01*
X029443Y006641D01*
X029375Y006804D01*
X029307Y006641D01*
X029164Y006498D01*
X028976Y006420D01*
X028774Y006420D01*
X028586Y006498D01*
X028443Y006641D01*
X028375Y006804D01*
X028307Y006641D01*
X028164Y006498D01*
X027976Y006420D01*
X027774Y006420D01*
X027586Y006498D01*
X027443Y006641D01*
X027427Y006680D01*
X027323Y006680D01*
X027307Y006641D01*
X027164Y006498D01*
X026976Y006420D01*
X026774Y006420D01*
X026586Y006498D01*
X026443Y006641D01*
X026375Y006804D01*
X026307Y006641D01*
X026164Y006498D01*
X025976Y006420D01*
X025774Y006420D01*
X025586Y006498D01*
X025443Y006641D01*
X025375Y006804D01*
X025307Y006641D01*
X025208Y006541D01*
X025330Y005930D01*
X031820Y005930D01*
X031635Y006855D01*
X031635Y006829D01*
X031557Y006641D01*
X031414Y006498D01*
X031226Y006420D01*
X031024Y006420D01*
X030836Y006498D01*
X030693Y006641D01*
X030615Y006829D01*
X030615Y007031D01*
X030693Y007219D01*
X030836Y007362D01*
X031024Y007440D01*
X031226Y007440D01*
X031414Y007362D01*
X031557Y007219D01*
X031567Y007196D01*
X031406Y008002D01*
X031299Y008048D01*
X031248Y007997D01*
X031038Y007910D01*
X030812Y007910D01*
X030602Y007997D01*
X030442Y008157D01*
X030355Y008367D01*
X030355Y008593D01*
X030442Y008803D01*
X030579Y008940D01*
X030422Y009097D01*
X030335Y009307D01*
X030335Y009533D01*
X030422Y009743D01*
X030582Y009903D01*
X030647Y009930D01*
X027115Y009930D01*
X027116Y009930D01*
X027193Y009890D01*
X027263Y009840D01*
X027325Y009778D01*
X027375Y009708D01*
X027415Y009631D01*
X027441Y009549D01*
X027455Y009463D01*
X027455Y009429D01*
X026914Y009429D01*
X026914Y009411D01*
X027455Y009411D01*
X027455Y009377D01*
X027441Y009291D01*
X027415Y009209D01*
X027375Y009132D01*
X027325Y009062D01*
X027263Y009000D01*
X027202Y008956D01*
X027213Y008950D01*
X027283Y008900D01*
X027345Y008838D01*
X027395Y008768D01*
X027435Y008691D01*
X027461Y008609D01*
X027475Y008523D01*
X027475Y008489D01*
X026934Y008489D01*
X026934Y008471D01*
X027475Y008471D01*
X027475Y008437D01*
X027461Y008351D01*
X027435Y008269D01*
X027395Y008192D01*
X027345Y008122D01*
X027283Y008060D01*
X027213Y008010D01*
X027136Y007970D01*
X027054Y007944D01*
X026968Y007930D01*
X026934Y007930D01*
X026934Y008471D01*
X026916Y008471D01*
X026916Y007930D01*
X026882Y007930D01*
X026796Y007944D01*
X026714Y007970D01*
X026637Y008010D01*
X026567Y008060D01*
X026505Y008122D01*
X026455Y008192D01*
X026443Y008214D01*
X026378Y008057D01*
X026218Y007897D01*
X026008Y007810D01*
X025782Y007810D01*
X025572Y007897D01*
X025412Y008057D01*
X025325Y008267D01*
X025325Y008437D01*
X023304Y009680D01*
X022388Y009680D01*
X022445Y009543D01*
X022445Y009317D01*
X022358Y009107D01*
X022198Y008947D01*
X022107Y008909D01*
X022218Y008863D01*
X022378Y008703D01*
X022465Y008493D01*
X022465Y008267D01*
X022378Y008057D01*
X022218Y007897D01*
X022008Y007810D01*
X021782Y007810D01*
X021572Y007897D01*
X021412Y008057D01*
X021325Y008267D01*
X021325Y008493D01*
X021412Y008703D01*
X021572Y008863D01*
X021663Y008901D01*
X021552Y008947D01*
X021392Y009107D01*
X021375Y009148D01*
X021375Y009017D01*
X021288Y008807D01*
X021128Y008647D01*
X020918Y008560D01*
X020692Y008560D01*
X020482Y008647D01*
X020322Y008807D01*
X020235Y009017D01*
X020235Y009243D01*
X020322Y009453D01*
X020482Y009613D01*
X020643Y009680D01*
X017597Y009680D01*
X017575Y009490D01*
X017938Y009490D01*
X018055Y009373D01*
X018055Y007947D01*
X017938Y007830D01*
X016512Y007830D01*
X016395Y007947D01*
X016395Y009373D01*
X016512Y009490D01*
X017071Y009490D01*
X017125Y009945D01*
X017125Y009980D01*
X017131Y009994D01*
X017133Y010009D01*
X017150Y010039D01*
X017163Y010072D01*
X017174Y010082D01*
X017181Y010095D01*
X017209Y010117D01*
X017233Y010142D01*
X017247Y010148D01*
X017259Y010157D01*
X017293Y010167D01*
X017325Y010180D01*
X017340Y010180D01*
X017355Y010184D01*
X017390Y010180D01*
X022875Y010180D01*
X022875Y010230D01*
X022896Y010280D01*
X015323Y010280D01*
X015482Y010214D01*
X015659Y010037D01*
X015755Y009805D01*
X015755Y009555D01*
X015659Y009323D01*
X015482Y009146D01*
X015250Y009050D01*
X015000Y009050D01*
X014768Y009146D01*
X014591Y009323D01*
X014495Y009555D01*
X014495Y009805D01*
X014591Y010037D01*
X014768Y010214D01*
X014927Y010280D01*
X013796Y010280D01*
X013805Y007177D01*
X014505Y007177D01*
X014622Y007060D01*
X014622Y007010D01*
X015838Y007010D01*
X015955Y006893D01*
X015955Y005467D01*
X015838Y005350D01*
X014622Y005350D01*
X014622Y005300D01*
X014505Y005183D01*
X013810Y005183D01*
X013811Y005041D01*
X013814Y005044D01*
X013875Y005088D01*
X013942Y005122D01*
X014013Y005145D01*
X014087Y005157D01*
X014116Y005157D01*
X014116Y004689D01*
X014134Y004689D01*
X014134Y005157D01*
X014163Y005157D01*
X014237Y005145D01*
X014308Y005122D01*
X014375Y005088D01*
X014436Y005044D01*
X014489Y004991D01*
X014533Y004930D01*
X014567Y004863D01*
X014590Y004792D01*
X014591Y004791D01*
X014674Y004855D01*
X014766Y004908D01*
X014864Y004949D01*
X014967Y004976D01*
X015045Y004986D01*
X015045Y004260D01*
X015205Y004260D01*
X015205Y004986D01*
X015283Y004976D01*
X015386Y004949D01*
X015484Y004908D01*
X015576Y004855D01*
X015660Y004790D01*
X015735Y004715D01*
X015800Y004631D01*
X015853Y004539D01*
X015894Y004441D01*
X015921Y004338D01*
X015931Y004260D01*
X015205Y004260D01*
X015205Y004100D01*
X015931Y004100D01*
X015921Y004022D01*
X015894Y003919D01*
X015853Y003821D01*
X015800Y003729D01*
X015735Y003645D01*
X015660Y003570D01*
X015576Y003505D01*
X015484Y003452D01*
X015386Y003411D01*
X015283Y003384D01*
X015205Y003374D01*
X015205Y004100D01*
X015045Y004100D01*
X015045Y003374D01*
X014967Y003384D01*
X014864Y003411D01*
X014766Y003452D01*
X014674Y003505D01*
X014591Y003569D01*
X014590Y003568D01*
X014567Y003497D01*
X014533Y003430D01*
X014489Y003369D01*
X014436Y003316D01*
X014375Y003272D01*
X014308Y003238D01*
X014237Y003215D01*
X014163Y003203D01*
X014134Y003203D01*
X014134Y003671D01*
X014116Y003671D01*
X014116Y003203D01*
X014087Y003203D01*
X014013Y003215D01*
X013942Y003238D01*
X013875Y003272D01*
X013816Y003315D01*
X013816Y003223D02*
X013987Y003223D01*
X014116Y003223D02*
X014134Y003223D01*
X014263Y003223D02*
X030732Y003223D01*
X030751Y003249D02*
X030706Y003187D01*
X030671Y003118D01*
X030647Y003045D01*
X030635Y002969D01*
X030635Y002945D01*
X031110Y002945D01*
X031110Y003420D01*
X031086Y003420D01*
X031010Y003408D01*
X030937Y003384D01*
X030868Y003349D01*
X030806Y003304D01*
X030751Y003249D01*
X030653Y003065D02*
X013817Y003065D01*
X013817Y002906D02*
X027777Y002906D01*
X027973Y002906D02*
X030635Y002906D01*
X030635Y002915D02*
X030635Y002891D01*
X030647Y002815D01*
X030671Y002742D01*
X030706Y002673D01*
X030751Y002611D01*
X030806Y002556D01*
X030868Y002511D01*
X030937Y002476D01*
X031010Y002452D01*
X031086Y002440D01*
X031110Y002440D01*
X031110Y002915D01*
X031140Y002915D01*
X031140Y002945D01*
X031615Y002945D01*
X031615Y002969D01*
X031603Y003045D01*
X031579Y003118D01*
X031544Y003187D01*
X031499Y003249D01*
X031444Y003304D01*
X031382Y003349D01*
X031313Y003384D01*
X031240Y003408D01*
X031164Y003420D01*
X031140Y003420D01*
X031140Y002945D01*
X031110Y002945D01*
X031110Y002915D01*
X030635Y002915D01*
X030669Y002748D02*
X028232Y002748D01*
X028326Y002589D02*
X030773Y002589D01*
X031110Y002589D02*
X031140Y002589D01*
X031140Y002440D02*
X031164Y002440D01*
X031240Y002452D01*
X031313Y002476D01*
X031382Y002511D01*
X031444Y002556D01*
X031499Y002611D01*
X031544Y002673D01*
X031579Y002742D01*
X031603Y002815D01*
X031615Y002891D01*
X031615Y002915D01*
X031140Y002915D01*
X031140Y002440D01*
X031477Y002589D02*
X033199Y002589D01*
X033258Y002748D02*
X031581Y002748D01*
X031615Y002906D02*
X033318Y002906D01*
X033377Y003065D02*
X031597Y003065D01*
X031518Y003223D02*
X033437Y003223D01*
X033496Y003382D02*
X031318Y003382D01*
X031140Y003382D02*
X031110Y003382D01*
X031110Y003223D02*
X031140Y003223D01*
X031140Y003065D02*
X031110Y003065D01*
X031110Y002906D02*
X031140Y002906D01*
X031140Y002748D02*
X031110Y002748D01*
X030932Y003382D02*
X015266Y003382D01*
X015205Y003382D02*
X015045Y003382D01*
X014984Y003382D02*
X014498Y003382D01*
X014581Y003540D02*
X014628Y003540D01*
X015045Y003540D02*
X015205Y003540D01*
X015205Y003699D02*
X015045Y003699D01*
X015045Y003857D02*
X015205Y003857D01*
X015205Y004016D02*
X015045Y004016D01*
X015045Y004100D02*
X014352Y004100D01*
X014308Y004122D01*
X014237Y004145D01*
X014163Y004157D01*
X014134Y004157D01*
X014134Y003689D01*
X014116Y003689D01*
X014116Y004157D01*
X014087Y004157D01*
X014013Y004145D01*
X013942Y004122D01*
X013875Y004088D01*
X013814Y004044D01*
X013814Y004044D01*
X013813Y004317D01*
X013814Y004316D01*
X013875Y004272D01*
X013942Y004238D01*
X014013Y004215D01*
X014087Y004203D01*
X014116Y004203D01*
X014116Y004671D01*
X014134Y004671D01*
X014134Y004203D01*
X014163Y004203D01*
X014237Y004215D01*
X014308Y004238D01*
X014352Y004260D01*
X015045Y004260D01*
X015045Y004100D01*
X015045Y004174D02*
X013813Y004174D01*
X014116Y004016D02*
X014134Y004016D01*
X014134Y003857D02*
X014116Y003857D01*
X014116Y003699D02*
X014134Y003699D01*
X014125Y003680D02*
X014125Y004680D01*
X015025Y004680D01*
X015045Y004650D02*
X015205Y004650D01*
X015125Y004580D02*
X015125Y004180D01*
X016825Y005080D01*
X016828Y005188D01*
X016875Y006930D01*
X017175Y007480D01*
X018675Y007480D01*
X018743Y007625D01*
X019225Y008660D01*
X019145Y008612D02*
X018055Y008612D01*
X018055Y008454D02*
X018442Y008454D01*
X018429Y008502D02*
X018456Y008399D01*
X018497Y008301D01*
X018550Y008209D01*
X018615Y008125D01*
X018690Y008050D01*
X018774Y007985D01*
X018866Y007932D01*
X018964Y007891D01*
X019067Y007864D01*
X019145Y007854D01*
X019145Y008580D01*
X018419Y008580D01*
X018429Y008502D01*
X018500Y008295D02*
X018055Y008295D01*
X018055Y008137D02*
X018606Y008137D01*
X018786Y007978D02*
X018055Y007978D01*
X019145Y007978D02*
X019305Y007978D01*
X019305Y007854D02*
X019383Y007864D01*
X019486Y007891D01*
X019584Y007932D01*
X019676Y007985D01*
X019760Y008050D01*
X019835Y008125D01*
X019900Y008209D01*
X019953Y008301D01*
X019994Y008399D01*
X020021Y008502D01*
X020031Y008580D01*
X019305Y008580D01*
X019305Y008740D01*
X019145Y008740D01*
X019145Y009466D01*
X019067Y009456D01*
X018964Y009429D01*
X018866Y009388D01*
X018774Y009335D01*
X018690Y009270D01*
X018615Y009195D01*
X018550Y009111D01*
X018497Y009019D01*
X018456Y008921D01*
X018429Y008818D01*
X018419Y008740D01*
X019145Y008740D01*
X019145Y008580D01*
X019305Y008580D01*
X019305Y007854D01*
X019664Y007978D02*
X021491Y007978D01*
X021379Y008137D02*
X019844Y008137D01*
X019950Y008295D02*
X021325Y008295D01*
X021325Y008454D02*
X020008Y008454D01*
X020566Y008612D02*
X019305Y008612D01*
X019305Y008740D02*
X020031Y008740D01*
X020021Y008818D01*
X019994Y008921D01*
X019953Y009019D01*
X019900Y009111D01*
X019835Y009195D01*
X019760Y009270D01*
X019676Y009335D01*
X019584Y009388D01*
X019486Y009429D01*
X019383Y009456D01*
X019305Y009466D01*
X019305Y008740D01*
X019305Y008771D02*
X019145Y008771D01*
X019145Y008929D02*
X019305Y008929D01*
X019305Y009088D02*
X019145Y009088D01*
X019145Y009246D02*
X019305Y009246D01*
X019305Y009405D02*
X019145Y009405D01*
X018906Y009405D02*
X018023Y009405D01*
X018055Y009246D02*
X018666Y009246D01*
X018537Y009088D02*
X018055Y009088D01*
X018055Y008929D02*
X018460Y008929D01*
X018423Y008771D02*
X018055Y008771D01*
X019145Y008454D02*
X019305Y008454D01*
X019305Y008295D02*
X019145Y008295D01*
X019145Y008137D02*
X019305Y008137D01*
X021044Y008612D02*
X021374Y008612D01*
X021479Y008771D02*
X021252Y008771D01*
X021339Y008929D02*
X021595Y008929D01*
X021411Y009088D02*
X021375Y009088D01*
X022155Y008929D02*
X024525Y008929D01*
X024267Y009088D02*
X022339Y009088D01*
X022416Y009246D02*
X024010Y009246D01*
X023752Y009405D02*
X022445Y009405D01*
X022437Y009563D02*
X023494Y009563D01*
X022875Y010197D02*
X015499Y010197D01*
X015657Y010039D02*
X017149Y010039D01*
X017117Y009880D02*
X015724Y009880D01*
X015755Y009722D02*
X017099Y009722D01*
X017080Y009563D02*
X015755Y009563D01*
X015693Y009405D02*
X016427Y009405D01*
X016395Y009246D02*
X015582Y009246D01*
X015341Y009088D02*
X016395Y009088D01*
X016395Y008929D02*
X013800Y008929D01*
X013800Y008771D02*
X016395Y008771D01*
X016395Y008612D02*
X013800Y008612D01*
X013801Y008454D02*
X016395Y008454D01*
X016395Y008295D02*
X013801Y008295D01*
X013802Y008137D02*
X016395Y008137D01*
X016395Y007978D02*
X013802Y007978D01*
X013803Y007820D02*
X021759Y007820D01*
X022031Y007820D02*
X025759Y007820D01*
X026031Y007820D02*
X031442Y007820D01*
X031410Y007978D02*
X031203Y007978D01*
X030647Y007978D02*
X027151Y007978D01*
X026934Y007978D02*
X026916Y007978D01*
X026916Y008137D02*
X026934Y008137D01*
X026934Y008295D02*
X026916Y008295D01*
X026916Y008454D02*
X026934Y008454D01*
X027443Y008295D02*
X030385Y008295D01*
X030355Y008454D02*
X027475Y008454D01*
X027460Y008612D02*
X030363Y008612D01*
X030428Y008771D02*
X027394Y008771D01*
X027243Y008929D02*
X030568Y008929D01*
X030431Y009088D02*
X027343Y009088D01*
X027427Y009246D02*
X030360Y009246D01*
X030335Y009405D02*
X027455Y009405D01*
X027437Y009563D02*
X030347Y009563D01*
X030413Y009722D02*
X027366Y009722D01*
X027208Y009880D02*
X030559Y009880D01*
X032425Y009246D02*
X032840Y009246D01*
X032687Y009405D02*
X032563Y009405D01*
X033410Y009246D02*
X033656Y009246D01*
X033615Y009405D02*
X033563Y009405D01*
X034594Y009246D02*
X034897Y009246D01*
X035110Y009246D02*
X035140Y009246D01*
X035140Y009405D02*
X035110Y009405D01*
X035110Y009563D02*
X035140Y009563D01*
X035531Y009405D02*
X035687Y009405D01*
X035621Y009563D02*
X035602Y009563D01*
X035615Y009722D02*
X035615Y009722D01*
X035573Y009880D02*
X035656Y009880D01*
X034677Y009880D02*
X034635Y009880D01*
X034635Y009722D02*
X034635Y009722D01*
X034635Y009563D02*
X034648Y009563D01*
X034635Y009405D02*
X034719Y009405D01*
X035353Y009246D02*
X035840Y009246D01*
X036410Y009246D02*
X037834Y009246D01*
X037805Y009405D02*
X036563Y009405D01*
X036629Y009563D02*
X037813Y009563D01*
X037879Y009722D02*
X036635Y009722D01*
X036594Y009880D02*
X038019Y009880D01*
X038731Y009880D02*
X039105Y009880D01*
X039105Y009722D02*
X038871Y009722D01*
X038937Y009563D02*
X039105Y009563D01*
X039105Y009405D02*
X038945Y009405D01*
X038916Y009246D02*
X039105Y009246D01*
X039105Y009088D02*
X038839Y009088D01*
X038660Y008929D02*
X039105Y008929D01*
X039105Y008771D02*
X038841Y008771D01*
X038917Y008612D02*
X039105Y008612D01*
X039105Y008454D02*
X038945Y008454D01*
X038936Y008295D02*
X039105Y008295D01*
X039105Y008137D02*
X038870Y008137D01*
X038729Y007978D02*
X039105Y007978D01*
X039105Y007820D02*
X036375Y007820D01*
X036375Y007978D02*
X038021Y007978D01*
X037880Y008137D02*
X036375Y008137D01*
X035875Y008137D02*
X032548Y008137D01*
X032530Y008295D02*
X035875Y008295D01*
X035875Y008454D02*
X032513Y008454D01*
X032495Y008612D02*
X035953Y008612D01*
X037909Y008771D02*
X032478Y008771D01*
X032460Y008929D02*
X038090Y008929D01*
X037911Y009088D02*
X032442Y009088D01*
X030462Y008137D02*
X027355Y008137D01*
X026699Y007978D02*
X026299Y007978D01*
X026411Y008137D02*
X026495Y008137D01*
X025491Y007978D02*
X022299Y007978D01*
X022411Y008137D02*
X025379Y008137D01*
X025325Y008295D02*
X022465Y008295D01*
X022465Y008454D02*
X025298Y008454D01*
X025041Y008612D02*
X022416Y008612D01*
X022311Y008771D02*
X024783Y008771D01*
X020432Y009563D02*
X017583Y009563D01*
X019544Y009405D02*
X020302Y009405D01*
X020236Y009246D02*
X019784Y009246D01*
X019913Y009088D02*
X020235Y009088D01*
X020271Y008929D02*
X019990Y008929D01*
X020027Y008771D02*
X020358Y008771D01*
X017063Y007384D02*
X016990Y007408D01*
X016914Y007420D01*
X016890Y007420D01*
X016890Y006945D01*
X016860Y006945D01*
X016860Y007420D01*
X016836Y007420D01*
X016760Y007408D01*
X016687Y007384D01*
X016618Y007349D01*
X016556Y007304D01*
X016501Y007249D01*
X016456Y007187D01*
X016421Y007118D01*
X016397Y007045D01*
X016385Y006969D01*
X016385Y006945D01*
X016860Y006945D01*
X016860Y006915D01*
X016385Y006915D01*
X016385Y006891D01*
X016397Y006815D01*
X016421Y006742D01*
X016456Y006673D01*
X016501Y006611D01*
X016556Y006556D01*
X016618Y006511D01*
X016687Y006476D01*
X016760Y006452D01*
X016836Y006440D01*
X016860Y006440D01*
X016860Y006915D01*
X016890Y006915D01*
X016890Y006945D01*
X017365Y006945D01*
X017365Y006969D01*
X017353Y007045D01*
X017329Y007118D01*
X017294Y007187D01*
X017249Y007249D01*
X017194Y007304D01*
X017132Y007349D01*
X017063Y007384D01*
X017139Y007344D02*
X017568Y007344D01*
X017429Y007186D02*
X017295Y007186D01*
X017356Y007027D02*
X017365Y007027D01*
X017365Y006915D02*
X016890Y006915D01*
X016890Y006440D01*
X016914Y006440D01*
X016990Y006452D01*
X017063Y006476D01*
X017132Y006511D01*
X017194Y006556D01*
X017249Y006611D01*
X017294Y006673D01*
X017329Y006742D01*
X017353Y006815D01*
X017365Y006891D01*
X017365Y006915D01*
X017361Y006869D02*
X017365Y006869D01*
X017414Y006710D02*
X017313Y006710D01*
X017188Y006552D02*
X017532Y006552D01*
X016890Y006552D02*
X016860Y006552D01*
X016860Y006710D02*
X016890Y006710D01*
X016890Y006869D02*
X016860Y006869D01*
X016860Y007027D02*
X016890Y007027D01*
X016890Y007186D02*
X016860Y007186D01*
X016860Y007344D02*
X016890Y007344D01*
X016611Y007344D02*
X013804Y007344D01*
X013805Y007186D02*
X016455Y007186D01*
X016394Y007027D02*
X014622Y007027D01*
X013804Y007503D02*
X031506Y007503D01*
X031474Y007661D02*
X013803Y007661D01*
X015955Y006869D02*
X016389Y006869D01*
X016437Y006710D02*
X015955Y006710D01*
X015955Y006552D02*
X016562Y006552D01*
X015955Y006393D02*
X023699Y006393D01*
X023722Y006235D02*
X015955Y006235D01*
X015955Y006076D02*
X023744Y006076D01*
X023767Y005918D02*
X015955Y005918D01*
X015955Y005759D02*
X023790Y005759D01*
X023812Y005601D02*
X015955Y005601D01*
X015930Y005442D02*
X023835Y005442D01*
X023858Y005284D02*
X014606Y005284D01*
X014299Y005125D02*
X023877Y005125D01*
X023987Y004967D02*
X015319Y004967D01*
X015205Y004967D02*
X015045Y004967D01*
X014931Y004967D02*
X014507Y004967D01*
X014585Y004808D02*
X014613Y004808D01*
X015045Y004808D02*
X015205Y004808D01*
X015637Y004808D02*
X034031Y004808D01*
X033972Y004650D02*
X015786Y004650D01*
X015873Y004491D02*
X033912Y004491D01*
X033853Y004333D02*
X015922Y004333D01*
X015205Y004333D02*
X015045Y004333D01*
X015045Y004491D02*
X015205Y004491D01*
X015125Y004580D02*
X015123Y004597D01*
X015119Y004614D01*
X015112Y004630D01*
X015102Y004644D01*
X015089Y004657D01*
X015075Y004667D01*
X015059Y004674D01*
X015042Y004678D01*
X015025Y004680D01*
X014134Y004650D02*
X014116Y004650D01*
X014116Y004808D02*
X014134Y004808D01*
X014134Y004967D02*
X014116Y004967D01*
X014116Y005125D02*
X014134Y005125D01*
X013951Y005125D02*
X013811Y005125D01*
X014116Y004491D02*
X014134Y004491D01*
X014134Y004333D02*
X014116Y004333D01*
X015205Y004174D02*
X033793Y004174D01*
X033734Y004016D02*
X015920Y004016D01*
X015868Y003857D02*
X033674Y003857D01*
X033615Y003699D02*
X015777Y003699D01*
X015622Y003540D02*
X033556Y003540D01*
X034030Y003382D02*
X036882Y003382D01*
X036794Y003540D02*
X034090Y003540D01*
X034149Y003699D02*
X036669Y003699D01*
X036615Y003857D02*
X036477Y003857D01*
X036573Y004016D02*
X036615Y004016D01*
X036602Y004174D02*
X036674Y004174D01*
X036578Y004333D02*
X036806Y004333D01*
X036852Y004491D02*
X036489Y004491D01*
X036375Y004650D02*
X036689Y004650D01*
X036623Y004808D02*
X036375Y004808D01*
X036375Y004967D02*
X036615Y004967D01*
X036654Y005125D02*
X036375Y005125D01*
X036375Y005284D02*
X036757Y005284D01*
X036970Y005442D02*
X036375Y005442D01*
X036375Y005601D02*
X036733Y005601D01*
X036644Y005759D02*
X036375Y005759D01*
X036375Y005918D02*
X036615Y005918D01*
X036633Y006076D02*
X036375Y006076D01*
X036375Y006235D02*
X036708Y006235D01*
X036910Y006393D02*
X036375Y006393D01*
X036375Y006552D02*
X036782Y006552D01*
X036664Y006710D02*
X036375Y006710D01*
X036375Y006869D02*
X036615Y006869D01*
X036615Y007027D02*
X036375Y007027D01*
X036375Y007186D02*
X036679Y007186D01*
X036818Y007344D02*
X036375Y007344D01*
X036375Y007503D02*
X039666Y007503D01*
X039763Y007661D02*
X036375Y007661D01*
X035875Y007661D02*
X032601Y007661D01*
X032618Y007503D02*
X035875Y007503D01*
X035875Y007344D02*
X032636Y007344D01*
X032654Y007186D02*
X035875Y007186D01*
X035875Y007027D02*
X032671Y007027D01*
X032689Y006869D02*
X035875Y006869D01*
X035875Y006710D02*
X032707Y006710D01*
X032724Y006552D02*
X035875Y006552D01*
X035875Y006393D02*
X032742Y006393D01*
X032759Y006235D02*
X035875Y006235D01*
X035875Y006076D02*
X034904Y006076D01*
X035043Y005918D02*
X035875Y005918D01*
X035875Y005759D02*
X035102Y005759D01*
X035102Y005601D02*
X035875Y005601D01*
X035875Y005442D02*
X035043Y005442D01*
X034903Y005284D02*
X035875Y005284D01*
X035875Y005125D02*
X034684Y005125D01*
X034624Y004967D02*
X035875Y004967D01*
X035875Y004808D02*
X034565Y004808D01*
X034506Y004650D02*
X035875Y004650D01*
X035761Y004491D02*
X034446Y004491D01*
X034387Y004333D02*
X035672Y004333D01*
X035648Y004174D02*
X034327Y004174D01*
X034268Y004016D02*
X035677Y004016D01*
X035773Y003857D02*
X034208Y003857D01*
X033971Y003223D02*
X036697Y003223D01*
X036629Y003065D02*
X033911Y003065D01*
X033852Y002906D02*
X036615Y002906D01*
X036649Y002748D02*
X033792Y002748D01*
X033733Y002589D02*
X036745Y002589D01*
X036998Y002431D02*
X033673Y002431D01*
X033614Y002272D02*
X037977Y002272D01*
X037861Y002431D02*
X037252Y002431D01*
X037505Y002589D02*
X037805Y002589D01*
X037805Y002748D02*
X037601Y002748D01*
X037635Y002906D02*
X037852Y002906D01*
X037953Y003065D02*
X037621Y003065D01*
X037553Y003223D02*
X038026Y003223D01*
X037882Y003382D02*
X037368Y003382D01*
X037456Y003540D02*
X037816Y003540D01*
X037805Y003699D02*
X037581Y003699D01*
X037635Y003857D02*
X037831Y003857D01*
X037904Y004016D02*
X037635Y004016D01*
X037576Y004174D02*
X038078Y004174D01*
X038672Y004174D02*
X039125Y004174D01*
X039125Y004016D02*
X038846Y004016D01*
X038919Y003857D02*
X039125Y003857D01*
X039121Y003699D02*
X038945Y003699D01*
X038934Y003540D02*
X039078Y003540D01*
X039034Y003382D02*
X038868Y003382D01*
X038991Y003223D02*
X038724Y003223D01*
X038797Y003065D02*
X038948Y003065D01*
X038905Y002906D02*
X038898Y002906D01*
X038689Y002114D02*
X038497Y002114D01*
X038645Y001955D02*
X033495Y001955D01*
X033436Y001797D02*
X038602Y001797D01*
X038559Y001638D02*
X033376Y001638D01*
X033280Y001480D02*
X038516Y001480D01*
X038473Y001321D02*
X030205Y001321D01*
X028900Y001797D02*
X028125Y001797D01*
X028125Y001955D02*
X032961Y001955D01*
X033021Y002114D02*
X028233Y002114D01*
X028326Y002272D02*
X033080Y002272D01*
X033139Y002431D02*
X028352Y002431D01*
X027518Y002748D02*
X013818Y002748D01*
X013818Y002589D02*
X027424Y002589D01*
X027398Y002431D02*
X013818Y002431D01*
X013819Y002272D02*
X016792Y002272D01*
X016855Y002335D02*
X016720Y002200D01*
X016648Y002025D01*
X016648Y001835D01*
X016720Y001660D01*
X016855Y001525D01*
X017030Y001453D01*
X017220Y001453D01*
X017395Y001525D01*
X017530Y001660D01*
X017538Y001680D01*
X022712Y001680D01*
X022720Y001660D01*
X022855Y001525D01*
X023030Y001453D01*
X023220Y001453D01*
X023395Y001525D01*
X023530Y001660D01*
X023602Y001835D01*
X023602Y002025D01*
X023530Y002200D01*
X023395Y002335D01*
X023220Y002407D01*
X023030Y002407D01*
X022855Y002335D01*
X022720Y002200D01*
X022712Y002180D01*
X017538Y002180D01*
X017530Y002200D01*
X017395Y002335D01*
X017220Y002407D01*
X017030Y002407D01*
X016855Y002335D01*
X017458Y002272D02*
X022792Y002272D01*
X023458Y002272D02*
X027424Y002272D01*
X027517Y002114D02*
X023565Y002114D01*
X023602Y001955D02*
X027625Y001955D01*
X027625Y001797D02*
X023586Y001797D01*
X023508Y001638D02*
X027625Y001638D01*
X027625Y001480D02*
X023284Y001480D01*
X023205Y001321D02*
X023545Y001321D01*
X023419Y001163D02*
X023331Y001163D01*
X022545Y001321D02*
X022205Y001321D01*
X022331Y001163D02*
X022419Y001163D01*
X021545Y001321D02*
X021205Y001321D01*
X021331Y001163D02*
X021419Y001163D01*
X020545Y001321D02*
X020205Y001321D01*
X020331Y001163D02*
X020419Y001163D01*
X019545Y001321D02*
X019205Y001321D01*
X019331Y001163D02*
X019419Y001163D01*
X018545Y001321D02*
X018205Y001321D01*
X018331Y001163D02*
X018419Y001163D01*
X017545Y001321D02*
X017205Y001321D01*
X017284Y001480D02*
X022966Y001480D01*
X022742Y001638D02*
X017508Y001638D01*
X016966Y001480D02*
X013821Y001480D01*
X013821Y001638D02*
X016742Y001638D01*
X016664Y001797D02*
X013820Y001797D01*
X013820Y001955D02*
X016648Y001955D01*
X016685Y002114D02*
X013819Y002114D01*
X013822Y001321D02*
X016545Y001321D01*
X016419Y001163D02*
X013822Y001163D01*
X013823Y001004D02*
X016365Y001004D01*
X016365Y000846D02*
X013823Y000846D01*
X013824Y000687D02*
X016424Y000687D01*
X016555Y000529D02*
X013824Y000529D01*
X017195Y000529D02*
X017555Y000529D01*
X017424Y000687D02*
X017326Y000687D01*
X018195Y000529D02*
X018555Y000529D01*
X018424Y000687D02*
X018326Y000687D01*
X019195Y000529D02*
X019555Y000529D01*
X019424Y000687D02*
X019326Y000687D01*
X020195Y000529D02*
X020555Y000529D01*
X020424Y000687D02*
X020326Y000687D01*
X021195Y000529D02*
X021555Y000529D01*
X021424Y000687D02*
X021326Y000687D01*
X022195Y000529D02*
X022555Y000529D01*
X022424Y000687D02*
X022326Y000687D01*
X024205Y001321D02*
X024545Y001321D01*
X024419Y001163D02*
X024331Y001163D01*
X025205Y001321D02*
X025545Y001321D01*
X025419Y001163D02*
X025331Y001163D01*
X026205Y001321D02*
X026545Y001321D01*
X026419Y001163D02*
X026331Y001163D01*
X027205Y001321D02*
X027545Y001321D01*
X027419Y001163D02*
X027331Y001163D01*
X028125Y001480D02*
X028795Y001480D01*
X028847Y001638D02*
X028125Y001638D01*
X028205Y001321D02*
X028545Y001321D01*
X028419Y001163D02*
X028331Y001163D01*
X033555Y002114D02*
X038253Y002114D01*
X037444Y004333D02*
X039125Y004333D01*
X039125Y004491D02*
X037398Y004491D01*
X037561Y004650D02*
X039125Y004650D01*
X039125Y004808D02*
X037627Y004808D01*
X037794Y004967D02*
X039125Y004967D01*
X039125Y005125D02*
X038134Y005125D01*
X038474Y005284D02*
X039125Y005284D01*
X039125Y005442D02*
X038813Y005442D01*
X037971Y005601D02*
X037517Y005601D01*
X037606Y005759D02*
X038310Y005759D01*
X038250Y006070D02*
X038500Y006070D01*
X038732Y006166D01*
X038909Y006343D01*
X039005Y006575D01*
X039005Y006825D01*
X038909Y007057D01*
X038732Y007234D01*
X038500Y007330D01*
X038250Y007330D01*
X038018Y007234D01*
X037841Y007057D01*
X037745Y006825D01*
X037745Y006575D01*
X037841Y006343D01*
X038018Y006166D01*
X038250Y006070D01*
X038235Y006076D02*
X037617Y006076D01*
X037635Y005918D02*
X038650Y005918D01*
X038515Y006076D02*
X038990Y006076D01*
X039125Y006235D02*
X038800Y006235D01*
X038930Y006393D02*
X039125Y006393D01*
X039125Y006552D02*
X038995Y006552D01*
X039005Y006710D02*
X039784Y006710D01*
X039960Y006869D02*
X038987Y006869D01*
X038921Y007027D02*
X039739Y007027D01*
X039657Y007186D02*
X038780Y007186D01*
X037970Y007186D02*
X037571Y007186D01*
X037635Y007027D02*
X037829Y007027D01*
X037763Y006869D02*
X037635Y006869D01*
X037586Y006710D02*
X037745Y006710D01*
X037755Y006552D02*
X037468Y006552D01*
X037340Y006393D02*
X037820Y006393D01*
X037950Y006235D02*
X037542Y006235D01*
X037631Y005442D02*
X037280Y005442D01*
X034346Y006076D02*
X032777Y006076D01*
X032795Y005918D02*
X034207Y005918D01*
X034148Y005759D02*
X032812Y005759D01*
X032830Y005601D02*
X034148Y005601D01*
X034207Y005442D02*
X032847Y005442D01*
X032865Y005284D02*
X034209Y005284D01*
X034150Y005125D02*
X032873Y005125D01*
X032763Y004967D02*
X034090Y004967D01*
X031791Y006076D02*
X025301Y006076D01*
X025269Y006235D02*
X031759Y006235D01*
X031727Y006393D02*
X025237Y006393D01*
X025218Y006552D02*
X025532Y006552D01*
X025414Y006710D02*
X025336Y006710D01*
X026218Y006552D02*
X026532Y006552D01*
X026414Y006710D02*
X026336Y006710D01*
X027218Y006552D02*
X027532Y006552D01*
X028218Y006552D02*
X028532Y006552D01*
X028414Y006710D02*
X028336Y006710D01*
X029218Y006552D02*
X029532Y006552D01*
X029414Y006710D02*
X029336Y006710D01*
X030218Y006552D02*
X030782Y006552D01*
X030664Y006710D02*
X030336Y006710D01*
X030385Y006869D02*
X030615Y006869D01*
X030615Y007027D02*
X030385Y007027D01*
X030321Y007186D02*
X030679Y007186D01*
X030818Y007344D02*
X030182Y007344D01*
X029568Y007344D02*
X029182Y007344D01*
X029321Y007186D02*
X029429Y007186D01*
X028568Y007344D02*
X028182Y007344D01*
X028321Y007186D02*
X028429Y007186D01*
X027568Y007344D02*
X027182Y007344D01*
X027321Y007186D02*
X027429Y007186D01*
X026568Y007344D02*
X026182Y007344D01*
X026321Y007186D02*
X026429Y007186D01*
X025568Y007344D02*
X025182Y007344D01*
X025321Y007186D02*
X025429Y007186D01*
X024568Y007344D02*
X024182Y007344D01*
X024321Y007186D02*
X024429Y007186D01*
X023568Y007344D02*
X023182Y007344D01*
X023321Y007186D02*
X023429Y007186D01*
X022568Y007344D02*
X022182Y007344D01*
X022321Y007186D02*
X022429Y007186D01*
X021568Y007344D02*
X021182Y007344D01*
X021321Y007186D02*
X021429Y007186D01*
X020568Y007344D02*
X020182Y007344D01*
X020321Y007186D02*
X020429Y007186D01*
X019568Y007344D02*
X019182Y007344D01*
X019321Y007186D02*
X019429Y007186D01*
X018568Y007344D02*
X018182Y007344D01*
X018321Y007186D02*
X018429Y007186D01*
X018414Y006710D02*
X018336Y006710D01*
X018218Y006552D02*
X018532Y006552D01*
X019218Y006552D02*
X019532Y006552D01*
X019414Y006710D02*
X019336Y006710D01*
X020218Y006552D02*
X020532Y006552D01*
X020414Y006710D02*
X020336Y006710D01*
X021218Y006552D02*
X021532Y006552D01*
X021414Y006710D02*
X021336Y006710D01*
X022218Y006552D02*
X022532Y006552D01*
X022414Y006710D02*
X022336Y006710D01*
X023218Y006552D02*
X023532Y006552D01*
X023414Y006710D02*
X023336Y006710D01*
X031432Y007344D02*
X031537Y007344D01*
X032583Y007820D02*
X035875Y007820D01*
X035875Y007978D02*
X032566Y007978D01*
X031664Y006710D02*
X031586Y006710D01*
X031696Y006552D02*
X031468Y006552D01*
X037432Y007344D02*
X040110Y007344D01*
X040110Y007186D02*
X040125Y007186D01*
X040110Y007027D02*
X040125Y007027D01*
X040110Y006869D02*
X040125Y006869D01*
X017419Y001163D02*
X017331Y001163D01*
X014134Y003382D02*
X014116Y003382D01*
X014116Y003540D02*
X014134Y003540D01*
X013799Y009088D02*
X014909Y009088D01*
X014668Y009246D02*
X013799Y009246D01*
X013798Y009405D02*
X014557Y009405D01*
X014495Y009563D02*
X013798Y009563D01*
X013797Y009722D02*
X014495Y009722D01*
X014526Y009880D02*
X013797Y009880D01*
X013796Y010039D02*
X014593Y010039D01*
X014751Y010197D02*
X013796Y010197D01*
M02*
