G75*
%MOIN*%
%OFA0B0*%
%FSLAX24Y24*%
%IPPOS*%
%LPD*%
%AMOC8*
5,1,8,0,0,1.08239X$1,22.5*
%
%ADD10C,0.0940*%
%ADD11C,0.0700*%
%ADD12C,0.0820*%
%ADD13R,0.0700X0.0700*%
%ADD14C,0.0400*%
%ADD15R,0.0674X0.0674*%
%ADD16C,0.0674*%
%ADD17C,0.1340*%
%ADD18R,0.1340X0.1340*%
%ADD19C,0.0634*%
D10*
X015125Y009680D03*
X038375Y006700D03*
D11*
X037125Y006930D03*
X037125Y005930D03*
X037125Y004930D03*
X040125Y005330D03*
X040125Y004330D03*
X040125Y003330D03*
X040125Y002330D03*
X040125Y001330D03*
X037125Y002930D03*
X037125Y003930D03*
X031125Y002930D03*
X029875Y000930D03*
X028875Y000930D03*
X027875Y000930D03*
X026875Y000930D03*
X025875Y000930D03*
X024875Y000930D03*
X023875Y000930D03*
X022875Y000930D03*
X021875Y000930D03*
X020875Y000930D03*
X019875Y000930D03*
X018875Y000930D03*
X017875Y000930D03*
X016875Y000930D03*
X016875Y006930D03*
X017875Y006930D03*
X018875Y006930D03*
X019875Y006930D03*
X020875Y006930D03*
X021875Y006930D03*
X022875Y006930D03*
X023875Y006930D03*
X024875Y006930D03*
X025875Y006930D03*
X026875Y006930D03*
X027875Y006930D03*
X028875Y006930D03*
X029875Y006930D03*
X031125Y006930D03*
X032125Y009680D03*
X033125Y009680D03*
X035125Y009680D03*
X036125Y009680D03*
X040125Y009330D03*
X040125Y008330D03*
X040125Y007330D03*
X040125Y006330D03*
D12*
X038375Y008430D03*
X038375Y009430D03*
X030905Y009420D03*
X030925Y008480D03*
X026925Y008480D03*
X025895Y008380D03*
X025875Y009430D03*
X026905Y009420D03*
X021875Y009430D03*
X020805Y009130D03*
X021895Y008380D03*
D13*
X034125Y009680D03*
D14*
X038375Y003680D03*
X038375Y002680D03*
D15*
X014125Y005680D03*
X014125Y006680D03*
D16*
X014125Y003680D03*
X014125Y004680D03*
D17*
X015125Y004180D03*
X019225Y008660D03*
D18*
X017225Y008660D03*
X015125Y006180D03*
D19*
X027875Y002430D03*
X023125Y001930D03*
X017125Y001930D03*
X034625Y005680D03*
X036125Y004180D03*
X035125Y008680D03*
M02*
