%
M48
M72
T01C0.0354
T02C0.0380
T03C0.0400
T04C0.0860
%
T01
X14125Y3680
X14125Y4680
X14125Y5680
X14125Y6680
X21895Y8380
X21875Y9430
X25875Y9430
X26905Y9420
X26925Y8480
X25895Y8380
X30925Y8480
X30905Y9420
X35125Y8680
X34625Y5680
X36125Y4180
X27875Y2430
X23125Y1930
X17125Y1930
T02
X16875Y930
X17875Y930
X18875Y930
X19875Y930
X20875Y930
X21875Y930
X22875Y930
X23875Y930
X24875Y930
X25875Y930
X26875Y930
X27875Y930
X28875Y930
X29875Y930
X31125Y2930
X37125Y2930
X37125Y3930
X40125Y4330
X40125Y3330
X40125Y2330
X40125Y1330
X37125Y4930
X37125Y5930
X37125Y6930
X40125Y7330
X40125Y6330
X40125Y5330
X31125Y6930
X29875Y6930
X28875Y6930
X27875Y6930
X26875Y6930
X25875Y6930
X24875Y6930
X23875Y6930
X22875Y6930
X21875Y6930
X20875Y6930
X19875Y6930
X18875Y6930
X17875Y6930
X16875Y6930
X32125Y9680
X33125Y9680
X34125Y9680
X35125Y9680
X36125Y9680
X40125Y9330
X40125Y8330
T03
X38375Y8430
X38375Y9430
X20805Y9130
X38375Y3680
X38375Y2680
T04
X38375Y6700
X19225Y8660
X17225Y8660
X15125Y9680
X15125Y6180
X15125Y4180
M30
