G75*
%MOIN*%
%OFA0B0*%
%FSLAX24Y24*%
%IPPOS*%
%LPD*%
%AMOC8*
5,1,8,0,0,1.08239X$1,22.5*
%
%ADD10C,0.0000*%
%ADD11C,0.0160*%
%ADD12C,0.0080*%
D10*
X013625Y000180D02*
X013595Y010480D01*
X040715Y010480D01*
X040745Y000180D01*
X013625Y000180D01*
X037945Y006700D02*
X037947Y006741D01*
X037953Y006781D01*
X037962Y006821D01*
X037976Y006860D01*
X037993Y006897D01*
X038013Y006932D01*
X038037Y006966D01*
X038064Y006997D01*
X038093Y007025D01*
X038126Y007050D01*
X038160Y007072D01*
X038196Y007091D01*
X038234Y007106D01*
X038274Y007118D01*
X038314Y007126D01*
X038355Y007130D01*
X038395Y007130D01*
X038436Y007126D01*
X038476Y007118D01*
X038516Y007106D01*
X038554Y007091D01*
X038590Y007072D01*
X038624Y007050D01*
X038657Y007025D01*
X038686Y006997D01*
X038713Y006966D01*
X038737Y006932D01*
X038757Y006897D01*
X038774Y006860D01*
X038788Y006821D01*
X038797Y006781D01*
X038803Y006741D01*
X038805Y006700D01*
X038803Y006659D01*
X038797Y006619D01*
X038788Y006579D01*
X038774Y006540D01*
X038757Y006503D01*
X038737Y006468D01*
X038713Y006434D01*
X038686Y006403D01*
X038657Y006375D01*
X038624Y006350D01*
X038590Y006328D01*
X038554Y006309D01*
X038516Y006294D01*
X038476Y006282D01*
X038436Y006274D01*
X038395Y006270D01*
X038355Y006270D01*
X038314Y006274D01*
X038274Y006282D01*
X038234Y006294D01*
X038196Y006309D01*
X038160Y006328D01*
X038126Y006350D01*
X038093Y006375D01*
X038064Y006403D01*
X038037Y006434D01*
X038013Y006468D01*
X037993Y006503D01*
X037976Y006540D01*
X037962Y006579D01*
X037953Y006619D01*
X037947Y006659D01*
X037945Y006700D01*
X014695Y009680D02*
X014697Y009721D01*
X014703Y009761D01*
X014712Y009801D01*
X014726Y009840D01*
X014743Y009877D01*
X014763Y009912D01*
X014787Y009946D01*
X014814Y009977D01*
X014843Y010005D01*
X014876Y010030D01*
X014910Y010052D01*
X014946Y010071D01*
X014984Y010086D01*
X015024Y010098D01*
X015064Y010106D01*
X015105Y010110D01*
X015145Y010110D01*
X015186Y010106D01*
X015226Y010098D01*
X015266Y010086D01*
X015304Y010071D01*
X015340Y010052D01*
X015374Y010030D01*
X015407Y010005D01*
X015436Y009977D01*
X015463Y009946D01*
X015487Y009912D01*
X015507Y009877D01*
X015524Y009840D01*
X015538Y009801D01*
X015547Y009761D01*
X015553Y009721D01*
X015555Y009680D01*
X015553Y009639D01*
X015547Y009599D01*
X015538Y009559D01*
X015524Y009520D01*
X015507Y009483D01*
X015487Y009448D01*
X015463Y009414D01*
X015436Y009383D01*
X015407Y009355D01*
X015374Y009330D01*
X015340Y009308D01*
X015304Y009289D01*
X015266Y009274D01*
X015226Y009262D01*
X015186Y009254D01*
X015145Y009250D01*
X015105Y009250D01*
X015064Y009254D01*
X015024Y009262D01*
X014984Y009274D01*
X014946Y009289D01*
X014910Y009308D01*
X014876Y009330D01*
X014843Y009355D01*
X014814Y009383D01*
X014787Y009414D01*
X014763Y009448D01*
X014743Y009483D01*
X014726Y009520D01*
X014712Y009559D01*
X014703Y009599D01*
X014697Y009639D01*
X014695Y009680D01*
D11*
X031625Y010180D02*
X031625Y000680D01*
X036625Y000680D01*
X036625Y010180D01*
X031625Y010180D01*
D12*
X033665Y008760D02*
X033818Y008913D01*
X033972Y008913D01*
X034125Y008760D01*
X034125Y008606D01*
X034125Y008760D02*
X034279Y008913D01*
X034432Y008913D01*
X034586Y008760D01*
X034586Y008453D01*
X034432Y008299D01*
X033818Y008299D02*
X033665Y008453D01*
X033665Y008760D01*
X034279Y007992D02*
X033665Y007685D01*
X034279Y007378D01*
X034432Y006151D02*
X033818Y006151D01*
X033665Y005997D01*
X033665Y005690D01*
X033818Y005537D01*
X034125Y005690D02*
X034125Y006151D01*
X034432Y006151D02*
X034586Y005997D01*
X034586Y005690D01*
X034432Y005537D01*
X034279Y005537D01*
X034125Y005690D01*
X034125Y005230D02*
X034125Y004616D01*
X033818Y004309D02*
X034586Y004309D01*
X033818Y004309D02*
X033665Y004156D01*
X033665Y003849D01*
X033818Y003695D01*
X034586Y003695D01*
X034586Y003388D02*
X033665Y003388D01*
X034279Y003081D02*
X034586Y003388D01*
X034279Y003081D02*
X034586Y002774D01*
X033665Y002774D01*
X033665Y002468D02*
X033665Y002161D01*
X033665Y002314D02*
X034586Y002314D01*
X034586Y002161D02*
X034586Y002468D01*
X034125Y001854D02*
X033665Y001854D01*
X034125Y001854D02*
X034279Y001700D01*
X034279Y001240D01*
X033665Y001240D01*
X033665Y000933D02*
X033665Y000626D01*
X033665Y000779D02*
X034279Y000779D01*
X034279Y000626D01*
X034586Y000779D02*
X034739Y000779D01*
X034586Y000319D02*
X033665Y000319D01*
X033665Y-000295D02*
X034586Y-000295D01*
X034279Y000012D01*
X034586Y000319D01*
M02*
